# xmcd
# 
# Track frame offsets:
#     150
#     23887
#     43700
#     67525
#     88975
#     106500
#     126675
#     150595
#     168125
#     190237
#     211637
#     232300
#     253850
#     272850
#     292287
#     309937
# 
# Disc length: 4397
# 
# Revision: 2
# Processed by: cddbd v1.5.2PL0 Copyright (c) Steve Scherf et al.
# Submitted via: fre:ac v1.1beta1pre3
# 
DISCID=e2112b10
DTITLE=張學友 - 這個冬天不太冷
DYEAR=1994
DGENRE=misc
TTITLE0=我等到花兒也謝了
TTITLE1=MERRY CHRISTMAS I LOVE YOU
TTITLE2=這個冬天不太冷
TTITLE3=望月
TTITLE4=幻想
TTITLE5=情繫半生
TTITLE6=無止境的心痛
TTITLE7=野貓之戀
TTITLE8=怨偶
TTITLE9=讓你愉快
TTITLE10=餓狼傳說
TTITLE11=這一次意外
TTITLE12=等你等到我心痛
TTITLE13=只有你不知道
TTITLE14=來來回回
TTITLE15=非常夏日
EXTD=
EXTT0=
EXTT1=
EXTT2=
EXTT3=
EXTT4=
EXTT5=
EXTT6=
EXTT7=
EXTT8=
EXTT9=
EXTT10=
EXTT11=
EXTT12=
EXTT13=
EXTT14=
EXTT15=
PLAYORDER=
